<svg xmlns="http://www.w3.org/2000/svg" viewBox="0 0 220 200" fill="none">
  <defs>
    <linearGradient id="glow" x1="0%" y1="0%" x2="100%" y2="100%">
      <stop offset="0%" stop-color="#2dd4bf" stop-opacity="0.6"/>
      <stop offset="100%" stop-color="#0d9488" stop-opacity="0.3"/>
    </linearGradient>
  </defs>
  <path d="M40 130 L180 130 L175 145 L45 145 Z" stroke="#2dd4bf" stroke-width="1.5" fill="none" opacity="0.5"/>
  <rect x="55" y="60" width="110" height="70" rx="4" stroke="#2dd4bf" stroke-width="1.5" fill="none" opacity="0.7"/>
  <line x1="65" y1="75" x2="100" y2="75" stroke="#f5f0e8" stroke-width="1.5" opacity="0.35"/>
  <line x1="65" y1="85" x2="130" y2="85" stroke="#2dd4bf" stroke-width="1.5" opacity="0.35"/>
  <line x1="65" y1="95" x2="115" y2="95" stroke="#f5f0e8" stroke-width="1.5" opacity="0.25"/>
  <line x1="65" y1="105" x2="90" y2="105" stroke="#2dd4bf" stroke-width="1.5" opacity="0.25"/>
  <text x="75" y="120" fill="#f5f0e8" font-family="monospace" font-size="10" opacity="0.5">&lt;/&gt;</text>
  <rect x="155" y="95" width="30" height="35" rx="3" stroke="#2dd4bf" stroke-width="1.5" fill="none" opacity="0.55"/>
  <path d="M185 105 Q195 105 195 115 Q195 125 185 125" stroke="#2dd4bf" stroke-width="1.5" fill="none" opacity="0.55"/>
  <text x="162" y="118" fill="#f5f0e8" font-family="monospace" font-size="8" opacity="0.45">&lt;/&gt;</text>
  <rect x="25" y="115" width="22" height="18" rx="2" stroke="#737373" stroke-width="1.5" fill="none" opacity="0.5"/>
  <path d="M36 115 Q30 95 36 85 Q42 95 36 115" stroke="#2dd4bf" stroke-width="1.5" fill="none" opacity="0.4"/>
  <path d="M36 115 Q42 100 48 90" stroke="#737373" stroke-width="1.5" fill="none" opacity="0.35"/>
  <circle cx="110" cy="100" r="80" fill="url(#glow)" opacity="0.12"/>
</svg>
